<svg width="161" height="74" fill="none" xmlns="http://www.w3.org/2000/svg"><g opacity=".1" fill="#fff"><path d="M125.7 42H99a5.2 5.2 0 1 1 0-10.4h45.4a5.1 5.1 0 0 0 5.2-5 5.1 5.1 0 0 0-5.2-5H109a5 5 0 0 1-5.3-4.8 5 5 0 0 1 5.3-4.9h11.6a5 5 0 0 0 5.2-4.8 5 5 0 0 0-5.2-4.8H40.3A5 5 0 0 0 35 7a5 5 0 0 0 5.3 4.8h5.2a5 5 0 0 1 5.2 4.9 5 5 0 0 1-5.2 4.8H5.8a5.1 5.1 0 0 0-5.2 5 5.1 5.1 0 0 0 5.2 5h9.8a5.2 5.2 0 1 1 0 10.4H9.8a4.9 4.9 0 1 0 0 9.7h27a5 5 0 1 1 0 10h-4a4.9 4.9 0 1 0 0 9.7h82.4a4.9 4.9 0 1 0 0-9.7h-4.6a5 5 0 1 1 0-10h15a4.9 4.9 0 1 0 0-9.7zM154.8 42h-8.7a4.9 4.9 0 1 0 0 9.7h8.7a4.9 4.9 0 1 0 0-9.7z"/><path d="M16 61.7H5.3a4.9 4.9 0 1 0 0 9.7H16a4.9 4.9 0 1 0 0-9.7zM23.5 12H26A5 5 0 0 0 31 7 5 5 0 0 0 26 2.3h-2.5A5 5 0 0 0 18.3 7a5 5 0 0 0 5.2 4.8z"/></g><path d="M42.2 6.8l4.1 27.6a.7.7 0 0 0 .7.7l9 .4h.4l12.8 8.7a.7.7 0 0 0 1.1-1l-3-6.3a.8.8 0 0 1 .7-1h13.2a.7.7 0 0 0 .7-.5L95.5 2a.7.7 0 0 0-.8-1L43 6a.7.7 0 0 0-.7.8zM119.1 48.6l-2.3 15.7a.7.7 0 0 1-.7.6l-5 .2-.3.1-6.6 4.5a.7.7 0 0 1-1-1l1-2.3a.7.7 0 0 0-.7-1h-7a.7.7 0 0 1-.8-.5L88 46a.7.7 0 0 1 .8-1l29.7 2.8a.7.7 0 0 1 .6.9zM51.9 18.4l28.1-2M53.1 25.4H67M98 55.2h14" stroke="#fff" stroke-width="1.5" stroke-miterlimit="10" stroke-linecap="round"/><path fill-rule="evenodd" clip-rule="evenodd" d="M50.5 37.7c.4 0 .7.4.6.8l-.2 2.3c0 1 0 2 .2 2.9a.8.8 0 1 1-1.5.1 28.8 28.8 0 0 1 0-5.4c0-.4.4-.7.9-.7zm.1 8.2c.4 0 .8.2 1 .6.3 1.9 1 3.7 1.7 5.5.2.4 0 .8-.4 1-.4.1-.8 0-1-.4-.8-1.9-1.4-3.8-1.9-5.8 0-.4.2-.8.6-.9zm3 8.4c.3-.2.8-.1 1 .2.5.9 1 1.7 1.6 2.4.2.4.1.9-.2 1.1-.3.2-.8.2-1-.2l-1.7-2.5c-.2-.4 0-.8.3-1z" fill="#fff"/><path d="M93 65.4a17.9 17.9 0 0 1-9.7 4.2c-4.5.8-4.3 1.3-10.8 0" stroke="#fff" stroke-width="1.5" stroke-miterlimit="10" stroke-linecap="round" stroke-dasharray="6 3"/><path d="M70.2 63l-14-1-.7 10 14 1 .7-10z" stroke="#fff" stroke-width="1.5" stroke-miterlimit="10" stroke-linecap="round" stroke-linejoin="round"/><path d="M58.8 61.6l.2-2.8c0-1 .6-2.1 1.5-2.8a4.7 4.7 0 0 1 6.4.5c.7.8 1.1 2 1 3l-.2 2.8" stroke="#fff" stroke-width="1.5" stroke-miterlimit="10" stroke-linecap="round"/><path fill-rule="evenodd" clip-rule="evenodd" d="M63 65.5c.3 0 .5.2.4.5l-.2 3a.5.5 0 1 1-1 0l.2-3c0-.3.3-.6.6-.5z" fill="#fff"/><path d="M104.4 30.1l-.8-.7c-.6.4-1.3.6-2.1.6a3.7 3.7 0 0 1-3.8-3.7c0-2 1.6-3.7 3.8-3.7 2.2 0 3.8 1.6 3.8 3.7 0 .7-.2 1.5-.6 2l.7.6-1 1.2zm-.7-3.8c0-1.2-.9-2.2-2.2-2.2-1.3 0-2.1 1-2.1 2.2 0 1.2.9 2.2 2.2 2.2l.9-.2-1.2-1 1-1.1 1.2 1.1.2-1zM115.7 39.9l-.4-.4a2 2 0 0 1-1.1.3c-1.1 0-1.9-.8-1.9-1.9a2 2 0 0 1 2-1.9c1.1 0 1.9.8 1.9 1.9 0 .4-.1.7-.3 1.1l.4.3-.6.6zm-.4-2c0-.6-.5-1.2-1.1-1.2-.7 0-1.1.5-1.1 1.1 0 .6.5 1.2 1.1 1.2l.5-.1-.6-.5.5-.6.6.5.1-.4zM119.8 25.6l-.7-1.6h-3l-.7 1.6h-1.6l3.1-7.2h1.4l3.1 7.2h-1.6zm-2.2-5.3l-.9 2.3h1.9l-1-2.3zM30.8 41.7L30 41c-.6.4-1.3.6-2.1.6a3.7 3.7 0 0 1-3.8-3.7c0-2 1.6-3.7 3.8-3.7 2.2 0 3.8 1.6 3.8 3.7 0 .7-.2 1.5-.6 2l.7.6-1 1.2zm-.8-3.8c0-1.2-.9-2.2-2.2-2.2-1.3 0-2.1 1-2.1 2.2 0 1.2.9 2.2 2.2 2.2l.9-.2-1.2-1 1-1.1 1.2 1.1c.2-.3.2-.6.2-1zM41.3 49.5l-.7-1.6h-3l-.6 1.6h-1.6l3.1-7.2h1.4l3.1 7.2h-1.7zm-2.1-5.3l-.9 2.3h1.9l-1-2.3zM30.1 59.6l-.3-.8h-1.6l-.3.8h-.8l1.6-3.7h.7l1.6 3.7h-.9zM29 56.9l-.5 1.2h1l-.5-1.2z" fill="#fff"/></svg>