<svg width="635" height="281" fill="none" xmlns="http://www.w3.org/2000/svg"><g opacity=".1" fill="#fff"><path d="M133.8 96a12.5 12.5 0 0 1 4.2-9.4l.5-2.1a13.7 13.7 0 0 0-5.8 13.9l1.1-1.8v-.7z"/><path d="M125.4 96a21 21 0 0 0 26.4 20.2l-2-.9a19.6 19.6 0 0 1-10-37.9V76a21 21 0 0 0-14.4 20z"/><path d="M118.2 96a28.2 28.2 0 0 0 42.5 24.1l-1.5-.7A26.7 26.7 0 1 1 140 70v-1.3a28.1 28.1 0 0 0-21.8 27.3z"/><path d="M111.1 96a35.3 35.3 0 0 0 56.8 27.8l-1.2-.7a33.9 33.9 0 1 1-27.4-60.3l-.3-1.3A35.2 35.2 0 0 0 111.1 96z"/><path d="M104 96a42.4 42.4 0 0 0 70 32 13 13 0 0 0-1-.9 41 41 0 1 1-35.1-71.3l-.3-1.2A42.3 42.3 0 0 0 104 95.9z"/><path d="M97 96a49.6 49.6 0 0 0 81.1 37.8l-.6-1.2A48 48 0 1 1 135.9 49l-.5-1.2a49.4 49.4 0 0 0-38.5 48.1z"/><path d="M89.8 96a56.7 56.7 0 0 0 90.4 45.2l-.1-1.5a55.1 55.1 0 0 1-68.9-86.4c6.4-5.2 13.8-9 21.8-11l-.6-1.1a56.6 56.6 0 0 0-42.6 54.7z"/><path d="M82.7 96A63.8 63.8 0 0 0 178 151l.9-2a62.2 62.2 0 0 1-72.7-100.8c6.8-5.8 14.8-10 23.4-12.4l-.6-1.1a63.7 63.7 0 0 0-46.3 61.1z"/><path d="M75.6 96a71 71 0 0 0 93.2 67l2-2.1a69.2 69.2 0 0 1-86.5-96.1 69.4 69.4 0 0 1 41.1-35l-.8-1.1a70.8 70.8 0 0 0-49 67.2z"/><path d="M146.4 172.5a76.3 76.3 0 0 1-66.2-115 76.4 76.4 0 0 1 40.3-33.6l-1-1a77.8 77.8 0 0 0 36.3 150.3l2.6-1.7c-4 .7-8 1-12 1z"/><path d="M61.4 96a85.2 85.2 0 0 0 78.6 84.6l3-1.1A83.4 83.4 0 0 1 73 55.5a83.5 83.5 0 0 1 41.7-37l-1.1-1A85 85 0 0 0 61.4 96z"/><path d="M54.2 96a92.3 92.3 0 0 0 69.7 89.2l1.2-.2 1.8-.4A90.5 90.5 0 0 1 67.4 51.2a90.6 90.6 0 0 1 41-37.7l-1.2-.8a92 92 0 0 0-53 83.2z"/><path d="M47.1 96a99.4 99.4 0 0 0 59.7 90.9l3.3-.1A97.6 97.6 0 0 1 101.3 9l-1.4-.7A99.1 99.1 0 0 0 47 95.9z"/><path d="M40 96A105.6 105.6 0 0 0 88.5 185l3.6.7A104.7 104.7 0 0 1 93.4 5.4l-1.6-.7A107 107 0 0 0 40 96z"/><path d="M66.1 176.1l2.7 2.5 3.9 1.7a111.7 111.7 0 0 1-38-94L33.1 88 33 96a112.6 112.6 0 0 0 33.2 80.2zM33.8 82.2l1.2.7A112.2 112.2 0 0 1 84.7 2.4L83 1.9a112.4 112.4 0 0 0-49.2 80.3z"/><path d="M27 78.6l1.3.7A119.3 119.3 0 0 1 75 .5l-2-.3a119.5 119.5 0 0 0-46 78.4zM51.3 167.8a118.5 118.5 0 0 1-24.1-68l-1.2 3.6c1.3 21.8 8.6 42.9 21 60.8l.4.4 4 3.2z"/><path d="M21.6 75.7c4.9-29.5 20-56.3 42.7-75.7l-2.2.1-6 5.6A126.6 126.6 0 0 0 20.4 75l1.2.7z"/><path d="M15.1 71.6c5-26.6 18-51.1 37.2-70.2l-2.5.6A133.6 133.6 0 0 0 14 70.8l1.2.8z"/><path d="M8.9 66.5A140 140 0 0 1 39.2 5.1l-2.6 1A140.3 140.3 0 0 0 7.8 65.3l1 1.1zM3.3 59.3C7.7 42 15.3 25.6 25.6 11l-2.9 1.8A147 147 0 0 0 2.4 57.5l.9 1.8zM0 45.5c2.2-6.3 4.8-12.4 7.7-18.4l-.7.5a34 34 0 0 0-7 18zM489.8 64.5l-2 1.3a59.8 59.8 0 0 1-29.3 29 88 88 0 0 0-1.7 2.1 61 61 0 0 0 33-32.4z"/><path d="M498.2 60.2l-1.6.7a66.2 66.2 0 0 1-44.4 43l-.8 1.6a67.3 67.3 0 0 0 46.8-45.3z"/><path d="M505.5 57.4l-1.4.6a72.5 72.5 0 0 1-58.1 53.9l-2.2 1.6a73.6 73.6 0 0 0 61.7-56z"/><path d="M512.6 54.7l-1.4.5a78.9 78.9 0 0 1-74.7 64l-1.4 1.3a80 80 0 0 0 77.5-65.8zM423.3 118.6c-6.8-1-13.4-2.7-19.7-5.4l-2.3.4c7.3 3.3 15 5.4 22.9 6.4l-.9-1.4z"/><path d="M519.4 52.7l-1.3.3a85.3 85.3 0 0 1-88.2 72.6l-1 1.2 5 .2a86.3 86.3 0 0 0 85.5-74.3zM426 125.3a84.5 84.5 0 0 1-32.4-9.8l-1.6.6a85.7 85.7 0 0 0 34.1 10.5l-.1-1.3z"/><path d="M499.5 106.2A91.9 91.9 0 0 0 526 52h-1.3a91.7 91.7 0 0 1-98.4 79.9 90.9 90.9 0 0 1-40.4-13.3l-1.4.6a92.8 92.8 0 0 0 115-12.9z"/><path d="M504 110.7a98.2 98.2 0 0 0 28.4-58.5H531a98.1 98.1 0 0 1-151.8 69.6l-1.3.7a99.2 99.2 0 0 0 126-11.8z"/><path d="M508.5 115.3a104.6 104.6 0 0 0 30.2-62.1l-1.2-.2a104.5 104.5 0 0 1-103.6 91.9c-21.7 0-43-6.8-60.6-19.5l-1.1.8a105.6 105.6 0 0 0 136.4-11z"/><path d="M513 119.8a111 111 0 0 0 32-65.5l-1.2-.2a111 111 0 0 1-109.9 97.2c-23.8 0-47-7.7-66-22l-1.2.9a112 112 0 0 0 146.4-10.4z"/><path d="M517.6 124.3c20-19.9 32.2-46.3 34.3-74.4l-1.4 1.5A117.3 117.3 0 0 1 434 157.7c-25.7 0-50.8-8.5-71.2-24.2l-1 .9a118.5 118.5 0 0 0 155.9-10.1z"/><path d="M522.1 128.8a123.7 123.7 0 0 0 36.6-88l-1.3 1.5A123.6 123.6 0 0 1 358 137.9l-1 1a124.9 124.9 0 0 0 165.1-10z"/><path d="M563.8 40.7a130 130 0 0 1-210.1 102l-.9 1a131 131 0 0 0 212-112.2l-1.2 1.8.2 7.4z"/><path d="M570.2 40.7a136.4 136.4 0 0 1-220.5 107l-.8 1c18 14.2 39 23.6 61.4 27.4l.1-.2v.2A137.3 137.3 0 0 0 570 20.5l-1 2.4c.8 5.9 1.2 11.8 1.2 17.8z"/><path d="M408.4 181c-22.7-4.2-44-13.8-62.2-28l-.7 1.2a142.5 142.5 0 0 0 62.4 28l.5-1.2zM535.7 142.4a142.7 142.7 0 0 0 39-131.6L574 12l-.1.3a142.6 142.6 0 0 1-163.7 169l-.1 1.2a145.8 145.8 0 0 0 79-8.9 143.2 143.2 0 0 0 46.7-31.2z"/><path d="M405.6 188.2l.4-1.2c-23-4.4-44.5-14-63-28.4l-.6 1.2a149.6 149.6 0 0 0 63.2 28.4zM583 40.7a149.2 149.2 0 0 1-173 147l.3 1.4a151.9 151.9 0 0 0 81.1-9.5A150 150 0 0 0 580.2 6l-1.1.6c2.6 11.2 3.9 22.6 3.9 34z"/><path d="M495 185A156.5 156.5 0 0 0 586.3 4.3H585a155.6 155.6 0 0 1-174.6 189.9v.5l.2.9A158.5 158.5 0 0 0 495 185zM340.2 164.5l-.6 1.3a156 156 0 0 0 63.6 28.5l.5-1.2c-23-4.6-44.8-14.4-63.5-28.6z"/><path d="M400.8 200.3l.5-1.2c-23-4.7-44.7-14.4-63.5-28.4l-.5 1.4a162.4 162.4 0 0 0 63.5 28.2zM595.8 40.7a162 162 0 0 1-184 160.2l.4 1.3a165.2 165.2 0 0 0 84.1-10.8A162.7 162.7 0 0 0 593.1 5l-1.4-.3c2.7 11.8 4.1 23.9 4.1 36z"/><path d="M602.2 40.7a168.4 168.4 0 0 1-188.2 167l.6 1.3a172 172 0 0 0 84.2-11.7 169.1 169.1 0 0 0 101.6-189l-1.5-.9c2.2 11 3.3 22.1 3.3 33.3zM398.4 206.3l.5-1.2a167.5 167.5 0 0 1-63.1-27.9l-.4 1.4a168.9 168.9 0 0 0 63 27.7zM395.8 212.3l.5-1.2a174 174 0 0 1-62-27.2l-.3 1.5a175.3 175.3 0 0 0 61.8 27z"/><path d="M502.4 202.7A175.8 175.8 0 0 0 607.8 14l-1.5-1.5a174.7 174.7 0 0 1-188.4 202l.5 1.1.1.2a175 175 0 0 0 83.9-13.1z"/><path d="M615 40.7a181.2 181.2 0 0 1-191 180.6c.5.5 1 1 1.7 1.4a181.9 181.9 0 0 0 137.1-53A182.1 182.1 0 0 0 615.4 23l-1.5-2c.7 6.5 1 13 1 19.6zM333.2 191l-.2 1.5a181.7 181.7 0 0 0 60 25.8l.6-1.2c-21.5-5-42-13.8-60.4-26.2zM332.6 198.2v1.6a188.4 188.4 0 0 0 57 24.2l1-1a186.6 186.6 0 0 1-58-24.8z"/><path d="M621.4 40.7A187.6 187.6 0 0 1 435.6 228l3.5 1.2a188.2 188.2 0 0 0 183.4-194l-1.3-2.6.2 8zM386.3 229.8l.7-1.2a192.9 192.9 0 0 1-54.4-22.9v1.7a195.2 195.2 0 0 0 53.7 22.4z"/><path d="M571.9 178.5a194.2 194.2 0 0 0 57-128.6l-1.2-3A194 194 0 0 1 444 234l.7 1.3a193.5 193.5 0 0 0 127.2-56.9z"/><path d="M576.4 183a200.7 200.7 0 0 0 57.2-114.7 102 102 0 0 0-.8-4.1 200.5 200.5 0 0 1-185.3 176.1l.7 1.2a199.8 199.8 0 0 0 128.2-58.4zM382.6 235.4l.8-1a199.2 199.2 0 0 1-50.3-20.9l.2 1.7a201.4 201.4 0 0 0 49.3 20.2z"/><path d="M581 187.6a207 207 0 0 0 53.9-93.4v-5.6a207.3 207.3 0 0 1-183.4 157.8l.8 1.2a206 206 0 0 0 128.6-60zM334.7 221.8v1l.3.7a209.9 209.9 0 0 0 43.3 17.4l.9-1a205.5 205.5 0 0 1-44.5-18.1zM373.2 246.1l1.1-1a211.7 211.7 0 0 1-37.3-14.8l.8 1.8a223.8 223.8 0 0 0 35.4 14z"/><path d="M585.5 192.1c16.7-16.6 30.5-35.9 40.9-57 1.1-3.3 2.2-6.7 3.1-10A213.8 213.8 0 0 1 456 252.4l1 1.2A212.3 212.3 0 0 0 566.6 209l-.8-.6 5.5-3.2c4.9-4.1 9.6-8.4 14.2-13zM341.8 239.7l1.4 2.1a226 226 0 0 0 24 9.2l1.3-1c-9-2.8-18-6.3-26.7-10.3z"/><path d="M571 213.5c-.3-.1-.7-.2-.9-.6l-.2-.3A218.6 218.6 0 0 1 461 258.4l1.1 1.1a218.7 218.7 0 0 0 109-45.9z"/><path d="M574.6 218.9l-.7-1.2a225 225 0 0 1-106.6 46.2l1.4 1a225 225 0 0 0 105.9-46zM353.8 251.7l2.1.8-2-.8z"/><path d="M577.8 224.5l-.7-1.2A231.4 231.4 0 0 1 475 269l1.6 1a231.6 231.6 0 0 0 101.3-45.6z"/><path d="M580 230.8c0-.5-.2-1-.3-1.4-28.2 21.8-61 37-96 44.5l2 .9a238 238 0 0 0 94.4-44z"/><path d="M581.1 238v-1l-.1-.6a244.4 244.4 0 0 1-86.4 41.5l2.4.7c30.4-8 59-21.8 84.1-40.5zM580.2 246.6l.5-2a251 251 0 0 1-72.4 36.1l3.4.3a257.8 257.8 0 0 0 68.5-34.4zM529.8 279.9c3.2-.7 6.4-1.5 9.5-2.6a258.3 258.3 0 0 0 33.6-18c1-1.2 2-2.3 2.9-3.6a257.6 257.6 0 0 1-46 24.2z"/></g></svg>